inDegrees=no
num_controls=7
num_derivatives=13
num_iterations=112
num_multipliers=7
num_parameters=0
num_slacks=7
num_states=26
objective=5.174164
objective_accelerations=0.635695
objective_balance=0.023466
objective_effort=0.164343
objective_height=4.252901
objective_ligament=0.097759
solver_duration=1279.862681
status=Solve_Succeeded
success=true
DataType=double
version=3
OpenSimVersion=4.4-2022-07-23-0e9fedc
endheader
time	/jointset/ground_pelvis/pelvis_tilt/value	/jointset/ground_pelvis/pelvis_tx/value	/jointset/ground_pelvis/pelvis_ty/value	/jointset/hip_l/hip_flexion_l/value	/jointset/hip_l/hip_adduction_l/value	/jointset/hip_l/hip_rotation_l/value	/jointset/back/lumbar_extension/value	/jointset/patellofemoral_l/patellar_flexion_l/value	/jointset/knee_l/knee_flexion_l/value	/jointset/knee_l/knee_adduction_l/value	/jointset/knee_l/knee_rotation_l/value	/jointset/ankle_l/ankle_angle_l/value	/jointset/subtalar_l/subtalar_angle_l/value	/jointset/ground_pelvis/pelvis_tilt/speed	/jointset/ground_pelvis/pelvis_tx/speed	/jointset/ground_pelvis/pelvis_ty/speed	/jointset/hip_l/hip_flexion_l/speed	/jointset/hip_l/hip_adduction_l/speed	/jointset/hip_l/hip_rotation_l/speed	/jointset/back/lumbar_extension/speed	/jointset/patellofemoral_l/patellar_flexion_l/speed	/jointset/knee_l/knee_flexion_l/speed	/jointset/knee_l/knee_adduction_l/speed	/jointset/knee_l/knee_rotation_l/speed	/jointset/ankle_l/ankle_angle_l/speed	/jointset/subtalar_l/subtalar_angle_l/speed	/forceset/tau_hip_flexion_l	/forceset/tau_hip_adduction_l	/forceset/tau_hip_rotation_l	/forceset/tau_knee_flexion_l	/forceset/tau_ankle_angle_l	/forceset/tau_subtalar_angle_l	/forceset/tau_lumbar_extension	lambda_cid13_p0	lambda_cid13_p1	lambda_cid13_p2	lambda_cid13_p3	lambda_cid13_p4	lambda_cid13_p5	lambda_cid14_p0	/jointset/ground_pelvis/pelvis_tilt/accel	/jointset/ground_pelvis/pelvis_tx/accel	/jointset/ground_pelvis/pelvis_ty/accel	/jointset/hip_l/hip_flexion_l/accel	/jointset/hip_l/hip_adduction_l/accel	/jointset/hip_l/hip_rotation_l/accel	/jointset/back/lumbar_extension/accel	/jointset/patellofemoral_l/patellar_flexion_l/accel	/jointset/knee_l/knee_flexion_l/accel	/jointset/knee_l/knee_adduction_l/accel	/jointset/knee_l/knee_rotation_l/accel	/jointset/ankle_l/ankle_angle_l/accel	/jointset/subtalar_l/subtalar_angle_l/accel	gamma_cid13_p0	gamma_cid13_p1	gamma_cid13_p2	gamma_cid13_p3	gamma_cid13_p4	gamma_cid13_p5	gamma_cid14_p0
0.5	-0.1995757136228612	0.04708131308233717	0.7861661301723356	0.9161498337503108	-0.3666763471908606	-0.01550961888353297	-0.3969626330073922	0.9097359441519177	0.9097359441519208	-0.04507035389717688	-0.1745112686370272	0.3173737646509908	0.16081307131111	-0.7055900354256905	-0.15064540202961	-0.464154086608051	2.198853325237777	0.02302880369472382	0.5230654031697359	-0.3160807855332174	1.866839457999676	1.866839457999653	0.2662175689511286	9.478194454511804e-05	0.5286797532131414	0.2511965633590733	-0.09678076445395702	0.0286973601090443	0.001180803882231572	-0.189796364158495	-0.01656230293576279	0.01729203084353234	0.1118094301076164	-29.41556288461483	-2.3125029327237	0.03401025151766141	1.797836754475095	-441.8312788369653	-67.99922690712981	-6.653014424041645	0.175586546680133	0.2932531011210063	-0.410328330632352	-1.017262578020343	0.1026313503660158	-0.6495109876257613	1.312606962971716	-1.524659551374105	-1.524659551374114	-0.2816700577857266	0.01911830875979512	-0.8389858161924183	0.07615563800992205	-3.983883591085717e-07	-1.394859969901372e-06	4.856923927499445e-06	8.951535169146724e-08	-1.046315631890886e-06	-2.049071585602925e-06	-6.926789738072509e-07
0.51	-0.2066208843012072	0.04558983571643595	0.7815052556184594	0.9380826864656542	-0.3664433757307106	-0.01030788119694568	-0.4000585525995806	0.9283244961920077	0.9283244961920433	-0.04242989914513782	-0.1745102889223294	0.3226170410531196	0.1633246605458952	-0.7033483257571874	-0.1476265448361982	-0.4679125779598785	2.187408933409174	0.02356499278714245	0.5172322194346285	-0.3030694434913086	1.850600108816838	1.850600108816825	0.2618709022073604	8.908894329168242e-05	0.5199059270153472	0.2510796179883805	-0.1011809674827256	0.02979521127162147	0.0005318464937418391	-0.191693265029585	-0.01836821096912637	0.01799362171213114	0.1151839520984255	-30.10316354661731	-2.438476965983294	-0.01253748336035065	1.89472461444583	-444.7831862604577	-68.16598897351459	-5.965324970469961	0.2627976321776394	0.309753232929196	-0.3425797368069387	-1.254320867796867	0.02837005319893775	-0.5583763851365775	1.30045123695954	-1.714061701630663	-1.714061701629203	-0.5116230623226614	-0.01134992240715728	-0.9070823897368725	-0.06225653858354099	-3.852980072770587e-07	-1.066849110981074e-06	4.850667103178687e-06	1.304443986590082e-07	-1.012151702035898e-06	-1.753944720395895e-06	-6.711269215913289e-07
0.52	-0.2136407709918254	0.04412925716336406	0.7768100021111954	0.9598918365861887	-0.3662051909067294	-0.005166106211438011	-0.4030233480889241	0.9467425569203169	0.9467425569203344	-0.03983300267665265	-0.1745095535011266	0.327770478919637	0.1658337529441796	-0.7005332378789969	-0.1444656394637409	-0.4710298772856171	2.174112806279895	0.02407147646030434	0.5110728629522059	-0.2898559649630226	1.832741195638323	1.832741195638319	0.2575059122775979	4.592322846778651e-05	0.5107120460909943	0.2506971960587066	-0.1055811705116472	0.03089306243428444	-0.0001171108956887307	-0.1935901659006687	-0.02017411900244132	0.01869521258088536	0.1185584740890712	-30.78535762648507	-2.574868189896306	-0.04660452124914827	1.954413896071119	-447.6689591072598	-68.43489191550458	-5.321585978870339	0.2902621886176003	0.3216627369300441	-0.2820899254145741	-1.387609638155619	0.09669026651460363	-0.7147455370887627	1.353034260247159	-1.848572350509394	-1.848572350509394	-0.2853346949845987	0.01162376604569405	-0.9229967615042223	0.02306032621363279	-3.670624543729178e-07	-7.304939174245189e-07	4.782250262535518e-06	1.691488519009121e-07	-9.646711765610819e-07	-1.430698021636079e-06	-6.422827042910218e-07
0.53	-0.2206297999801707	0.04270092993072003	0.772086789019283	0.9815591812548817	-0.3659618716078444	-8.693553225436787e-05	-0.4058550165228006	0.9649742688806487	0.9649742688807048	-0.03727987839289156	-0.17450895125326	0.3328300474490453	0.1683379684554184	-0.6971797151048488	-0.1411821492460544	-0.4735019616486363	2.159060845897191	0.02459140096977526	0.5047098656031764	-0.2764592055576412	1.813346775570322	1.81334677557033	0.253119720198671	5.984241761812627e-05	0.5011386316945834	0.2501030388300527	-0.1099544137221919	0.0319583252581208	-0.0006771206129525572	-0.1956434136964779	-0.02191521958040335	0.01913284886278747	0.1218750472243206	-31.48136994895889	-2.569358137077642	-0.1316772739305163	2.087717431852204	-450.6729978021307	-68.47268237951155	-4.721530168812007	0.3717982928384876	0.3343787325436934	-0.2133387209019862	-1.608325681724525	0.02880095763667502	-0.6053866063539539	1.335774219048663	-2.022914537052394	-2.022914537050643	-0.5151659591899567	-0.005052711359540113	-0.9840017943348561	-0.1075620763818774	-3.483813806547338e-07	-4.254976919068545e-07	4.699303890369471e-06	2.03001844245838e-07	-9.162683392948159e-07	-1.122323010928116e-06	-6.144116869932308e-07
0.54	-0.2275825135465756	0.04130597491392373	0.7673421408779094	1.003067139031049	-0.3657135215809671	0.004926943218935447	-0.4085521618749564	0.9830044290998735	0.98300442909999	-0.03477059692888999	-0.1745084755548467	0.3377919842313639	0.1708348607285763	-0.6932701534896889	-0.1377911962941926	-0.475316887177866	2.142235427778613	0.02507762205816515	0.498014477352397	-0.2629513486176444	1.792430847418043	1.792430847418063	0.2487373483260248	2.061333840469735e-05	0.4911856966731578	0.249232548442325	-0.1143276569328858	0.03302358808201599	-0.001237130330208094	-0.1976966614922896	-0.02365632015833152	0.01957048514478814	0.1251916203594138	-32.17351680204958	-2.572483193183339	-0.2062807691975296	2.187195387842086	-453.6249705858461	-68.60554736639313	-4.164560530125224	0.4014699568199565	0.3431552837650118	-0.1506581586566885	-1.742301185330752	0.08994958229838639	-0.7812237174387368	1.375253767170238	-2.152873967364784	-2.152873967364786	-0.2845706537284798	0.0009941123729528395	-0.9989008865072276	-0.03220630560115172	-3.292073902912256e-07	-1.551964948577507e-07	4.600282291837684e-06	2.314872628324051e-07	-8.668450719614142e-07	-8.304017827456102e-07	-5.87617401613117e-07
0.55	-0.2344935196540725	0.03994541773529978	0.7625826363966118	1.024398325104916	-0.3654602549206345	0.009872687675064912	-0.4111136553772806	1.000818100744054	1.000818100744049	-0.03230509264455305	-0.1745082313475324	0.3426526635924867	0.1733219622304423	-0.6888417367410223	-0.1343065511385332	-0.4764706235465316	2.123714194450838	0.02557435209309459	0.491085817400517	-0.2493410664587604	1.770060763624299	1.770060763624312	0.2443626635597741	1.633568724095499e-05	0.4808945122220937	0.2481443599276712	-0.1186446053129453	0.03387728476259749	-0.00169440676549363	-0.1999435085342152	-0.02530021786310693	0.01988598916265324	0.1284356692878653	-32.85471310162578	-2.512036993868488	-0.3052385031210638	2.324257062744435	-456.6772833894329	-68.67883169155996	-3.649726097011244	0.4769068548114899	0.3532217800828001	-0.08089152308773183	-1.950211216610766	0.02863232930201219	-0.6565089278210099	1.354858248700799	-2.315368653900203	-2.315368653901205	-0.5140186288712709	-0.002062476888615075	-1.052587781016983	-0.1541748617717032	-3.090936746842362e-07	8.825977930278753e-08	4.476050709025179e-06	2.552467393816791e-07	-8.150991818297636e-07	-5.53243874394324e-07	-5.597755181922295e-07
